<?xml version="1.0" encoding="utf-8"?>
<!-- Generator: Adobe Illustrator 25.0.0, SVG Export Plug-In . SVG Version: 6.00 Build 0)  -->
<svg version="1.1" id="Capa_1" xmlns="http://www.w3.org/2000/svg" xmlns:xlink="http://www.w3.org/1999/xlink" x="0px" y="0px"
	 viewBox="0 0 99.57 99.57" style="enable-background:new 0 0 99.57 99.57;" xml:space="preserve">
<style type="text/css">
	.st0{fill:#FFFFFF;}
</style>
<g>
	<path class="st0" d="M56.86,31.42c0.76,0.16,1.49,0.39,2.14,0.86c2.14,1.52,2.57,4.66,0.82,6.61c-1.6,1.79-3.29,3.5-4.95,5.25
		c-1.72,1.81-3.44,3.62-5.17,5.43c-0.07,0.08-0.14,0.16-0.23,0.25c0.09,0.1,0.17,0.2,0.26,0.29c3.25,3.4,6.49,6.8,9.75,10.19
		c0.9,0.94,1.44,2.03,1.4,3.34c-0.05,1.96-0.98,3.39-2.78,4.15c-1.77,0.75-3.45,0.45-4.85-0.86c-1.13-1.05-2.15-2.21-3.22-3.32
		c-3.35-3.5-6.7-6.99-10.04-10.5c-1.54-1.61-1.82-3.78-0.72-5.6c0.21-0.34,0.47-0.66,0.75-0.96c4.3-4.53,8.6-9.05,12.9-13.58
		c0.77-0.81,1.67-1.34,2.78-1.5c0.03,0,0.06-0.03,0.09-0.05C56.14,31.42,56.5,31.42,56.86,31.42z"/>
</g>
</svg>
